<svg width="860" height="860" viewBox="0 0 860 860" fill="none" xmlns="http://www.w3.org/2000/svg">
<path d="M430 860C192.517 860 0 667.48 0 430C0 192.517 192.517 0 430 0C667.48 0 860 192.517 860 430C860 667.48 667.48 860 430 860ZM331.531 759.698C290.139 671.914 264.765 575.091 259.174 473H88.6613C105.694 609.59 202.805 721.312 331.531 759.698ZM345.32 473C351.787 577.868 381.745 676.377 430 763.336C478.255 676.377 508.213 577.868 514.68 473H345.32ZM771.338 473H600.826C595.236 575.091 569.862 671.914 528.47 759.698C657.195 721.312 754.306 609.59 771.338 473ZM88.6613 387H259.174C264.765 284.908 290.139 188.085 331.531 100.3C202.805 138.689 105.694 250.41 88.6613 387ZM345.32 387H514.68C508.213 282.132 478.255 183.621 430 96.6636C381.745 183.621 351.787 282.132 345.32 387ZM528.47 100.3C569.862 188.085 595.236 284.908 600.826 387H771.338C754.306 250.41 657.195 138.689 528.47 100.3Z" fill="url(#paint0_linear_11_9)"/>
<defs>
<linearGradient id="paint0_linear_11_9" x1="974" y1="-108.5" x2="-102" y2="965.5" gradientUnits="userSpaceOnUse">
<stop offset="0.21116" stop-color="#1648FF"/>
<stop offset="1" stop-color="#0D2B99"/>
</linearGradient>
</defs>
</svg>
